<svg width="47.906" height="47.987" fill="none" version="1.1" viewBox="0 0 47.905685 47.987419" xmlns="http://www.w3.org/2000/svg">
 <g clip-rule="evenodd" fill-rule="evenodd">
  <g fill="#0074d3">
   <path d="m29.197 17.9c-0.1411-1.252-0.6563-2.4347-1.4805-3.3985s-1.9204-1.6653-3.1498-2.0158-2.5368-0.3342-3.7568 0.0468-2.2978 1.1095-3.097 2.0935c-0.7991 0.984-1.2838 2.1792-1.3926 3.4344-0.1088 1.2551 0.1631 2.5138 0.7813 3.6168 0.6182 1.1031 1.555 2.0008 2.6918 2.5797s2.4225 0.813 3.6945 0.6725c1.7029-0.1901 3.2598-1.0366 4.3298-2.3541 1.0701-1.3175 1.566-2.9986 1.3793-4.6753z"/>
   <path d="m15.321 4.2745c0.1822 0.03569 0.371 0.01775 0.5429-0.05159 0.1718-0.06934 0.3191-0.187 0.4234-0.33826 0.1043-0.15127 0.161-0.32944 0.163-0.51223 0.0019-0.1828-0.0509-0.36212-0.1519-0.51554s-0.2457-0.27414-0.416-0.34707-0.3587-0.09483-0.5416-0.06297-0.3522 0.11608-0.4868 0.24211c-0.1345 0.12604-0.2283 0.28831-0.2697 0.46653-0.0281 0.12119-0.0312 0.24669-0.0092 0.3691 0.022 0.1224 0.0687 0.23922 0.1374 0.34355 0.0687 0.10432 0.1579 0.19404 0.2624 0.26384 0.1046 0.0698 0.2222 0.11826 0.3461 0.14253z"/>
   <path d="m5.2399 32.912c0-0.4208-0.12679-0.8322-0.36435-1.1821-0.23755-0.3499-0.5752-0.6226-0.97024-0.7837-0.39504-0.161-0.82973-0.2032-1.2491-0.1211-0.41938 0.0821-0.80459 0.2848-1.107 0.5824-0.30235 0.2975-0.50825 0.6767-0.59167 1.0894-0.083419 0.4127-0.040605 0.8405 0.12303 1.2293 0.16363 0.3888 0.44073 0.7211 0.79626 0.9549 0.35552 0.2338 0.77351 0.3586 1.2011 0.3586 0.57338 0 1.1233-0.2242 1.5287-0.6232s0.63321-0.9402 0.63321-1.5045z"/>
   <path d="m8.3286 19.949c-0.93411-0.0807-1.8716 0.1131-2.6938 0.5568-0.8222 0.4437-1.4922 1.1175-1.9253 1.9361-0.43306 0.8185-0.60971 1.7451-0.50761 2.6625 0.1021 0.9173 0.47837 1.7843 1.0812 2.4912s1.4052 1.2219 2.3054 1.48c0.9003 0.258 1.8581 0.2474 2.7523-0.0304 0.89421-0.2778 1.6846-0.8104 2.2712-1.5304 0.5866-0.7199 0.9431-1.595 1.0243-2.5144 0.1088-1.2319-0.2838-2.456-1.0916-3.4032s-1.9646-1.54-3.2163-1.6482z"/>
   <path d="m41.68 14.117c0 0.2449 0.0491 0.4873 0.1446 0.7135 0.0954 0.2262 0.2354 0.4315 0.4117 0.6043s0.3856 0.3097 0.6157 0.4027c0.2302 0.093 0.4768 0.1403 0.7257 0.1393 0.2483 6e-4 0.4943-0.047 0.7238-0.1404 0.2295-0.0933 0.4379-0.2304 0.6133-0.4034 0.1765-0.1721 0.3163-0.3772 0.4112-0.6032 0.0949-0.2259 0.1429-0.4683 0.1413-0.7128 0.0013-0.2457-0.0468-0.4892-0.1416-0.7164-0.0949-0.2272-0.2345-0.4337-0.4109-0.6076-0.3562-0.3464-0.8363-0.5417-1.3371-0.5437-0.5035 8e-4 -0.9865 0.1961-1.3452 0.5437-0.3533 0.3531-0.5517 0.8285-0.5525 1.324zm1.3612 0c0.0016-0.1395 0.0591-0.2726 0.1601-0.3704 0.0994-0.0994 0.2347-0.1561 0.3764-0.1576 0.0689 9e-4 0.137 0.0153 0.2002 0.0424s0.1204 0.0662 0.1681 0.1152c0.101 0.0978 0.1585 0.2309 0.1601 0.3704-9e-4 0.0678-0.0156 0.1348-0.0431 0.197-0.0275 0.0623-0.0673 0.1185-0.117 0.1655-0.0481 0.0479-0.1055 0.0858-0.1688 0.1115-0.0632 0.0257-0.1311 0.0387-0.1995 0.0382-0.0698 0.0011-0.139-0.0115-0.2037-0.0373-0.0646-0.0257-0.1233-0.0639-0.1727-0.1124-0.101-0.0978-0.1585-0.231-0.1601-0.3704z"/>
   <path d="m44.483 35.19c0-0.5927-0.1188-1.1795-0.3494-1.7269-0.2307-0.5474-0.5688-1.0446-0.9949-1.4633-0.4262-0.4187-0.932-0.7505-1.4886-0.9766s-1.1531-0.3419-1.7552-0.3409c-0.602-0.0019-1.1985 0.1133-1.755 0.3392-0.5566 0.2259-1.0622 0.5579-1.4879 0.9769-0.8472 0.8383-1.3272 1.9698-1.3372 3.1522 0 1.1954 0.4826 2.342 1.3415 3.1873 0.8589 0.8454 2.0239 1.3203 3.2386 1.3203 1.2013-0.0099 2.351-0.4823 3.2028-1.3161 0.4283-0.4174 0.7678-0.9146 0.9988-1.4626 0.2309-0.548 0.3487-1.1357 0.3464-1.7289zm-3.299 0c-1e-4 0.3327-0.1323 0.6522-0.3683 0.8904-0.2398 0.2366-0.5652 0.3699-0.9048 0.3704-0.1685 0.0011-0.3356-0.0308-0.4915-0.0938s-0.2976-0.1558-0.4168-0.2731c-0.1191-0.1173-0.2135-0.2567-0.2775-0.4102-0.064-0.1534-0.0964-0.3179-0.0953-0.4837 6e-4 -0.3342 0.1359-0.6545 0.3763-0.8905 0.2413-0.2345 0.5658-0.3673 0.9048-0.3704 0.3396 6e-4 0.665 0.1338 0.9048 0.3704 0.2419 0.2357 0.3799 0.5555 0.3844 0.8905z"/>
   <path d="m28.444 43.086c0.4461 0.0013 0.8881-0.0844 1.3003-0.2521 0.4123-0.1677 0.7868-0.4142 1.1018-0.725 0.3155-0.3103 0.5657-0.6789 0.7361-1.0846s0.2576-0.8406 0.2568-1.2796c0.0021-0.4397-0.0842-0.8755-0.254-1.2823-0.1697-0.4068-0.4196-0.7765-0.7352-1.0878-0.3155-0.3113-0.6906-0.5581-1.1035-0.7261-0.4129-0.1681-0.8555-0.254-1.3023-0.253-0.9006 1e-4 -1.7644 0.3515-2.4021 0.9772-0.3159 0.31-0.5663 0.6786-0.7367 1.0843-0.1704 0.4058-0.2575 0.8408-0.2562 1.2798-0.0026 0.4393 0.0838 0.8746 0.2543 1.2806 0.1705 0.4059 0.4216 0.7743 0.7386 1.0836 0.3146 0.3119 0.6888 0.5596 1.1011 0.7286 0.4122 0.1691 0.8544 0.2562 1.301 0.2564zm-0.6726-2.6872c-0.0906-0.0874-0.1627-0.1916-0.2122-0.3066-0.0495-0.1149-0.0753-0.2384-0.0761-0.3632 4e-3 -0.2478 0.1043-0.4847 0.2803-0.662 0.1772-0.1727 0.4152-0.2715 0.6646-0.2758 0.2501 0.0079 0.4879 0.1092 0.6649 0.2834 0.1769 0.1742 0.2799 0.4081 0.2879 0.6544-9e-4 0.1236-0.0269 0.2459-0.0764 0.3595-0.0494 0.1137-0.1215 0.2165-0.2118 0.3024-0.1783 0.176-0.4202 0.2752-0.6726 0.2758-0.2432-0.0038-0.4755-0.0998-0.6486-0.2679z"/>
   <path d="m16.497 36.301h-0.2162c-0.3641 0.0275-0.7056 0.1843-0.9609 0.4413l-0.0961 0.0945c-0.2337 0.2793-0.3586 0.6313-0.3523 0.993-0.0024 0.2003 0.036 0.3991 0.113 0.5845 0.077 0.1855 0.1911 0.3538 0.3354 0.4951 0.2696 0.2644 0.6289 0.4215 1.0089 0.4413h0.2162c0.3429-0.033 0.6658-0.1739 0.9208-0.4019h0.04c0.2881-0.2863 0.4496-0.6728 0.4496-1.0757 0-0.4028-0.1615-0.7894-0.4496-1.0757-0.2582-0.2879-0.6199-0.4659-1.0088-0.4964z"/>
   <path d="m30.605 12.557c0.1326 0.1568 0.296 0.2858 0.4803 0.3792s0.3859 0.1494 0.5926 0.1645c0.2027 0.0178 0.407-0.0044 0.6009-0.0653 0.1938-0.0609 0.3734-0.1592 0.5282-0.2893 0.32-0.2663 0.5212-0.6454 0.5604-1.056 0.0314-0.4094-0.1008-0.8148-0.3685-1.1298-0.2677-0.3149-0.6497-0.5146-1.0647-0.5566-0.4194-0.03658-0.8365 0.0908-1.1611 0.3546-0.32 0.2663-0.5212 0.6454-0.5605 1.056-0.0283 0.417 0.1128 0.828 0.3924 1.1427zm0.8007-1.0403c0.0117-0.1165 0.0691-0.224 0.1601-0.2994 0.0896-0.0731 0.2042-0.1097 0.3203-0.1025 0.118 0.0131 0.2266 0.0694 0.3043 0.1577 0.0373 0.0431 0.0651 0.0934 0.0816 0.1477 0.0165 0.0542 0.0215 0.1112 0.0145 0.1675-0.0035 0.0574-0.0188 0.1136-0.0449 0.165-0.0261 0.0515-0.0626 0.0972-0.1072 0.1344-0.0925 0.0736-0.2097 0.1102-0.3283 0.1025-0.1154-0.0139-0.221-0.0705-0.2954-0.1583-0.0744-0.0879-0.112-0.2004-0.105-0.3146z"/>
  </g>
  <path d="m20.796 22.479c0.2085 0.2215 0.4947 0.3567 0.8007 0.3783 0.155 0.0138 0.3112-0.0028 0.4597-0.0487 0.1484-0.046 0.2861-0.1205 0.4051-0.2192 0.1193-0.0974 0.2176-0.2173 0.2892-0.3526 0.0715-0.1354 0.1147-0.2834 0.1272-0.4355 0.016-0.1539 1e-4 -0.3093-0.0466-0.457-0.0468-0.1476-0.1236-0.2844-0.2257-0.402-0.0995-0.1168-0.2215-0.2131-0.3589-0.2834s-0.2875-0.1133-0.4418-0.1264c-0.3127-0.0244-0.6227 0.0717-0.8648 0.268-0.2406 0.1981-0.3929 0.4809-0.4244 0.788-0.0161 0.1594 4e-4 0.3203 0.0485 0.4732 0.0482 0.153 0.127 0.2949 0.2318 0.4173zm0.5845-0.788c0.0071-0.085 0.0473-0.1641 0.1121-0.2207 0.0328-0.0281 0.0709-0.0496 0.1121-0.0631s0.0848-0.0188 0.1281-0.0157c0.0902 0.0078 0.1736 0.0503 0.2322 0.1182 0.052 0.0678 0.0776 0.1517 0.0721 0.2364-0.0032 0.0431-0.0155 0.0849-0.0362 0.1229-0.0207 0.0381-0.0493 0.0714-0.0839 0.0978-0.0327 0.0281-0.0708 0.0496-0.1121 0.0631-0.0412 0.0135-0.0848 0.0189-0.1281 0.0157-0.0873-0.0098-0.1676-0.0521-0.2242-0.1182-0.0276-0.0326-0.0482-0.0704-0.0605-0.111-0.0124-0.0406-0.0163-0.0833-0.0116-0.1254z" fill="#fff"/>
  <g fill="#0074d3">
   <path d="m25.497 1.3189c0.0682 0.08123 0.1522 0.14819 0.2471 0.19691 0.0949 0.04873 0.1988 0.07824 0.3054 0.08678 0.1066 0.00904 0.214-0.00304 0.3158-0.03553 0.1017-0.03248 0.1958-0.08471 0.2768-0.1536 0.0825-0.06707 0.1505-0.14975 0.2-0.24314 0.0496-0.0934 0.0795-0.19561 0.0882-0.30061 0.0103-0.10437-7e-4 -0.20971-0.0323-0.30985-0.0317-0.10014-0.0833-0.19305-0.1518-0.27331-0.0682-0.081231-0.1522-0.14819-0.2471-0.19692-0.0949-0.048728-0.1987-0.078236-0.3054-0.08678-0.1066-0.0090334-0.214 0.003049-0.3158 0.035533-0.1017 0.032484-0.1958 0.084712-0.2768 0.1536-0.0825 0.067072-0.1505 0.14975-0.2 0.24314-0.0496 0.093395-0.0795 0.19561-0.0882 0.30061-0.0156 0.21029 0.0502 0.41861 0.1841 0.58316zm0.4004-0.53588c6e-4 -0.029363 0.0082-0.05818 0.0221-0.084169s0.0337-0.048435 0.058-0.06556c0.0222-0.020806 0.0487-0.036538 0.0778-0.046074 0.0291-0.009535 0.0599-0.012639 0.0903-0.00909 0.0579 0.009933 0.1111 0.037499 0.1522 0.078805 0.0197 0.022505 0.0342 0.048963 0.0425 0.07754 0.0083 0.028576 0.0102 0.058587 0.0055 0.08795 0 0.029485-0.0072 0.058533-0.0212 0.084624-0.0139 0.026092-0.0342 0.04844-0.0589 0.065105-0.0444 0.037614-0.1016 0.057314-0.1601 0.055164-0.0607-0.00833-0.117-0.03601-0.1602-0.078805-0.034-0.045488-0.051-0.10119-0.048-0.15761z"/>
   <path d="m22.463 28.664c0.4213-0.0039 0.824-0.1709 1.121-0.465 0.2843-0.2902 0.4447-0.6765 0.4484-1.0796v-0.0473c-6e-3 -0.4118-0.1755-0.805-0.4724-1.0954-0.297-0.294-0.6997-0.4611-1.121-0.4649-0.4162 0.0017-0.8154 0.1628-1.113 0.4492-0.2939 0.2916-0.4605 0.6846-0.4644 1.0954 0.0039 0.4107 0.1705 0.8037 0.4644 1.0954 0.2955 0.3117 0.7042 0.4958 1.137 0.5122z"/>
   <path d="m29.854 19.318c-0.0015 0.2177 0.0409 0.4336 0.1247 0.6352 0.0839 0.2015 0.2075 0.3847 0.3637 0.5389 0.1531 0.1521 0.3352 0.2728 0.5358 0.3553s0.4158 0.1251 0.6333 0.1255c0.4425-0.0184 0.8645-0.1884 1.193-0.4808 0.1579-0.1518 0.2831-0.3332 0.3684-0.5336 0.0853-0.2003 0.1288-0.4155 0.1281-0.6327 0.0027-0.2221-0.0398-0.4426-0.125-0.6483-0.0853-0.2058-0.2116-0.3926-0.3715-0.5495-0.3181-0.2959-0.7393-0.4608-1.177-0.4608-0.4378 0-0.8589 0.1649-1.1771 0.4608-0.1603 0.1549-0.287 0.3402-0.3724 0.5448-0.0853 0.2045-0.1275 0.424-0.124 0.6452z"/>
   <path d="m5.5829 13.014h0.20018c0.57092-0.0035 1.12-0.2161 1.5404-0.5963 0.42038-0.3803 0.68189-0.9009 0.7336-1.4605 0.02897-0.2936-0.00216-0.5899-0.09156-0.8714-0.08939-0.28156-0.23523-0.5426-0.4289-0.76771-0.24231-0.28349-0.55188-0.50383-0.90132-0.64152-0.34945-0.13769-0.72799-0.18848-1.1021-0.14787-0.37414 0.0406-0.73234 0.17134-1.0429 0.38065s-0.56392 0.49074-0.73764 0.81938c-0.17373 0.32867-0.26246 0.69437-0.25836 1.0648 0.00411 0.3705 0.10093 0.7342 0.28189 1.059 0.18097 0.3248 0.4405 0.6008 0.75563 0.8034s0.67615 0.3256 1.0511 0.3581z"/>
   <path d="m11.701 17.34c0.7691 0.4151 1.6635 0.5464 2.5222 0.3704 0.3123-0.071 0.2563 0 0.1922-0.2916l-0.3683-1.2451c-0.0801-0.2601-0.04-0.2207-0.1922-0.1734h-0.1521c-0.3973 0.0392-0.7972-0.0434-1.145-0.2364-0.2184-0.1146-0.4111-0.2714-0.5666-0.461-0.1555-0.1895-0.2705-0.408-0.3382-0.6423l-1.7136 0.4807c0.12876 0.4641 0.35106 0.8979 0.65366 1.2756 0.3027 0.3777 0.6794 0.6916 1.1079 0.9231z"/>
   <path d="m24.664 28.026c-0.2616 0.4627-0.3441 1.003-0.2322 1.5209 0.048 0.1892 0 0.1576 0.1841 0.1103l0.8008-0.2206c0.1601-0.0473 0.1361 0 0.104-0.1103-0.032-0.1104 0-0.0552 0-0.0946-0.0317-0.2437 0.013-0.4912 0.1282-0.7092 0.1517-0.2634 0.4015-0.4584 0.6966-0.5438l-0.3043-1.0323c-0.2931 0.0761-0.5668 0.2114-0.8039 0.3973-0.2371 0.1858-0.4324 0.4182-0.5733 0.6823z"/>
   <path d="m45.731 24.835c0.606 0.3256 1.3097 0.4289 1.9858 0.2916 0.2482-0.0631 0.2002 0 0.1441-0.2365l-0.2882-0.9771c-0.0641-0.2049 0-0.1734-0.1522-0.1419-0.0398 0.0052-0.0802 0.0052-0.1201 0-0.2998 0.0463-0.6068 0.0024-0.8808-0.1261-0.1718-0.0919-0.3233-0.2166-0.4457-0.3668-0.1223-0.1502-0.2131-0.3228-0.2669-0.5079l-1.3532 0.3861c0.1052 0.3556 0.2812 0.6871 0.5176 0.9752 0.2364 0.2882 0.5286 0.5272 0.8596 0.7034z"/>
   <path d="m2.2295 21.549 0.61654 0.0394c0.04273 0.0021 0.08545-0.0042 0.12564-0.0186 0.0402-0.0144 0.07706-0.0366 0.10841-0.0652 0.03134-0.0287 0.05654-0.0632 0.0741-0.1016 0.01757-0.0384 0.02714-0.0799 0.02815-0.122 0.01663-0.4227 0.19715-0.8231 0.50445-1.119 0.13161-0.1282 0.28799-0.2291 0.4599-0.2967 0.17192-0.0677 0.35587-0.1008 0.54099-0.0973 0.04731 0.0117 0.09682 0.0117 0.14413 0 0.05447-0.0222 0.10142-0.0592 0.13543-0.1066 0.03401-0.0475 0.05368-0.1034 0.05674-0.1613v-0.6068c0.00459-0.0616-0.01076-0.1229-0.04386-0.1753-0.03309-0.0524-0.08221-0.0931-0.1403-0.1163-0.01991-0.0097-0.04184-0.0148-0.06406-0.0148-0.02223 0-0.04415 0.0051-0.06406 0.0148-0.35671-0.019-0.71343 0.0372-1.0462 0.165-0.33282 0.1277-0.63403 0.3241-0.88346 0.5758-0.52045 0.5108-0.8312 1.1926-0.87278 1.9149-0.00339 0.0403 2e-3 0.0808 0.01581 0.1188 0.01381 0.0381 0.03572 0.0728 0.06426 0.1019 0.03094 0.0304 0.06909 0.0529 0.11102 0.0653 0.04192 0.0123 0.08632 0.0143 0.1292 0.0056z"/>
   <path d="m39.934 26.127h-0.5605c-0.1619-0.011-0.3218 0.0404-0.4459 0.1434-0.124 0.1029-0.2025 0.2494-0.2187 0.4083-0.0107 0.1213-0.0476 0.2389-0.1084 0.3449-0.0608 0.1061-0.144 0.1981-0.2439 0.2698-0.2275 0.1746-0.5132 0.2589-0.8007 0.2364-0.082-0.0089-0.1649-9e-4 -0.2434 0.0235-0.0786 0.0244-0.1512 0.0647-0.2131 0.1183-0.0632 0.0496-0.1151 0.1117-0.1523 0.1823-0.0373 0.0706-0.059 0.1481-0.0638 0.2275l-0.0481 0.5516c-0.0111 0.1606 0.0422 0.319 0.1485 0.4413s0.2571 0.1987 0.42 0.2128h0.2082c0.6652 0.0041 1.313-0.2093 1.8416-0.6068 0.2978-0.2248 0.5442-0.5086 0.7235-0.833s0.2875-0.6823 0.3175-1.0504c0.0132-0.1601-0.0387-0.3188-0.1442-0.4413-0.1037-0.1261-0.2528-0.2079-0.4163-0.2286z"/>
   <path d="m39.517 6.2523h-0.04c-0.671-0.23894-1.3877-0.32778-2.0979-0.26006-0.4434 0.04032-0.8781 0.1466-1.2892 0.31522-0.5272 0.20168-1.0056 0.50999-1.4042 0.90501-0.3986 0.39501-0.7085 0.86794-0.9098 1.3882-0.0315 0.05011-0.0507 0.10678-0.0561 0.16549-0.0162 0.11999 0.0099 0.24184 0.074 0.34514 0.0642 0.10329 0.1624 0.18176 0.2784 0.22225l0.9208 0.33886c0.135 0.04639 0.283 0.03946 0.4129-0.01932 0.1299-0.05879 0.2316-0.16485 0.2837-0.2959v-0.04728c0.1058-0.25456 0.2634-0.48515 0.463-0.67759 0.1997-0.19243 0.4372-0.34266 0.698-0.44144 0.6112-0.22904 1.2866-0.22904 1.8977 0 0.0716 0.0277 0.1474 0.04368 0.2242 0.04728 0.1119-0.0011 0.2207-0.03559 0.3122-0.09892 0.0915-0.06332 0.1614-0.15248 0.2003-0.2557l0.3363-0.89838c0.0337-0.06709 0.0526-0.14049 0.0553-0.21532 0.0028-0.07482-0.0107-0.14936-0.0395-0.21867s-0.0722-0.13181-0.1274-0.18334-0.1209-0.09092-0.1927-0.11555z"/>
   <path d="m35.619 17.632c0.1191-0.4212 0.1479-0.8622 0.0845-1.295s-0.2176-0.8479-0.4528-1.2188c-0.4765-0.7665-1.2281-1.329-2.1059-1.5761-0.086-0.0265-0.1765-0.0352-0.2661-0.0257-0.0895 0.0095-0.1761 0.037-0.2544 0.0808-0.0792 0.042-0.1491 0.0992-0.2055 0.1682-0.0564 0.0691-0.0981 0.1485-0.1228 0.2337l-0.1921 0.6541c-0.0506 0.1714-0.0304 0.3554 0.056 0.5122 0.0427 0.0781 0.1008 0.1468 0.1709 0.2023 0.0702 0.0555 0.1509 0.0966 0.2375 0.1208 0.3803 0.104 0.7082 0.3425 0.9208 0.6699 0.0872 0.1372 0.143 0.2914 0.1638 0.452 0.0207 0.1605 0.0058 0.3236-0.0437 0.4779-0.0268 0.0846-0.0357 0.1737-0.0261 0.2618 0.0097 0.0882 0.0376 0.1734 0.0822 0.2504 0.0426 0.078 0.1007 0.1468 0.1709 0.2023 0.0701 0.0555 0.1509 0.0966 0.2374 0.1208l0.6646 0.197c0.0638 0.0082 0.1284 0.0082 0.1922 0 0.1766 5e-4 0.3463-0.0675 0.4724-0.1891 0.1-0.0771 0.1751-0.1812 0.2162-0.2995z"/>
   <path d="m19.997 5.275 2.6584 0.70924h0.1601c0.1362 0.00357 0.2695-0.03914 0.3774-0.12096 0.1079-0.08181 0.1839-0.19773 0.2151-0.32823l0.7287-2.6163c0.0417-0.15463 0.0197-0.31922-0.0613-0.45795s-0.2144-0.24038-0.3711-0.28281l-2.6584-0.70924c-0.1581-0.04128-0.3264-0.01982-0.4687 0.05976-0.1422 0.07958-0.2471 0.21092-0.2919 0.36578l-0.7207 2.6163c-0.0243 0.07812-0.0323 0.16026-0.0236 0.24151 0.0088 0.08124 0.0341 0.15991 0.0744 0.23129 0.0404 0.07138 0.095 0.13401 0.1606 0.18411 0.0656 0.05011 0.1407 0.08667 0.221 0.1075z"/>
  </g>
 </g>
 <path d="m39.149 15.52h-1.7536c-0.4157 0-0.7526 0.3317-0.7526 0.7408v1.7258c0 0.4091 0.3369 0.7408 0.7526 0.7408h1.7536c0.4157 0 0.7527-0.3317 0.7527-0.7408v-1.7258c0-0.4091-0.337-0.7408-0.7527-0.7408z" fill="#f60"/>
 <g clip-rule="evenodd" fill-rule="evenodd">
  <g fill="#f60">
   <path d="m18.083 1.6817h0.1361c0.1554-1.3e-4 0.306-0.05258 0.4269-0.14863s0.2048-0.22991 0.2377-0.37936c0.0334-0.1732-0.0032-0.35238-0.1018-0.49951-0.0987-0.14713-0.2517-0.25063-0.4267-0.28854-0.0873-0.01838-0.1775-0.019459-0.2652-0.003175-0.0878 0.016284-0.1714 0.049606-0.2459 0.098021s-0.1385 0.11095-0.1883 0.18397c-0.0497 0.073014-0.0841 0.15504-0.1013 0.2413-0.0206 0.084728-0.0227 0.17281-0.0062 0.25841 0.0166 0.08559 0.0515 0.16674 0.1023 0.23806 0.0478 0.07607 0.1107 0.14183 0.1851 0.1933 0.0743 0.05147 0.1584 0.08758 0.2473 0.10616z"/>
   <path d="m25.258 24.756h0.1362c0.1275-8e-4 0.2521-0.0371 0.3593-0.1049 0.1073-0.0677 0.1928-0.1639 0.2466-0.2776 0.0538-0.1136 0.0737-0.2399 0.0573-0.3642-0.0163-0.1243-0.0682-0.2415-0.1496-0.338-0.0814-0.0964-0.1889-0.1682-0.3102-0.2069-0.1212-0.0386-0.2511-0.0427-0.3746-0.0116s-0.2354 0.096-0.3229 0.1872c-0.0874 0.0912-0.1467 0.2049-0.171 0.328-0.0182 0.0849-0.0191 0.1725-0.0026 0.2577 0.0165 0.0853 0.0501 0.1664 0.0988 0.2388 0.0486 0.0746 0.1119 0.1388 0.1863 0.1889 0.0743 0.0501 0.1581 0.085 0.2464 0.1026z"/>
   <path d="m46.676 28.515h0.1361c0.1733 0.0104 0.3441-0.0456 0.4765-0.1562 0.1323-0.1107 0.2161-0.2675 0.2337-0.4375 0.0176-0.1701-0.0324-0.3402-0.1394-0.4749-0.107-0.1346-0.2628-0.2233-0.4347-0.2475-0.1762-0.0349-0.3593 2e-4 -0.5093 0.0976-0.15 0.0975-0.2548 0.2493-0.2914 0.4225-0.0334 0.1715 1e-3 0.3491 0.0961 0.4965 0.0478 0.0761 0.1107 0.1418 0.185 0.1933s0.1585 0.0876 0.2474 0.1062z"/>
   <path d="m32.264 44.717h0.1362c0.1733 0.0105 0.3441-0.0455 0.4764-0.1562 0.1324-0.1106 0.2162-0.2674 0.2337-0.4375 0.0176-0.17-0.0323-0.3402-0.1393-0.4748-0.107-0.1347-0.2628-0.2233-0.4347-0.2475-0.176-0.0328-0.3581 0.0031-0.5076 0.1002-0.1494 0.0971-0.2546 0.2477-0.2931 0.4199-0.0171 0.0854-0.0167 0.1733 0.0012 0.2586 0.0178 0.0852 0.0528 0.1661 0.1029 0.2379 0.045 0.0767 0.1061 0.1432 0.1793 0.1948 0.0732 0.0517 0.1567 0.0873 0.245 0.1046z"/>
   <path d="m7.4008 39.406c0.01082-0.2867-0.0861-0.5673-0.27224-0.788-0.0983-0.1182-0.21996-0.2154-0.3576-0.2858-0.13765-0.0705-0.2884-0.1127-0.44311-0.124-0.30985-0.0263-0.61768 0.0692-0.85623 0.2656s-0.38843 0.4777-0.4169 0.7825c-0.0253 0.3053 0.07249 0.6082 0.27224 0.8432 0.09892 0.1174 0.22072 0.2142 0.35824 0.2846s0.28797 0.1129 0.44247 0.1252h0.10409c0.30132-0.0017 0.5905-0.1171 0.80799-0.3223 0.21748-0.2053 0.34671-0.4848 0.36105-0.781z"/>
   <path d="m25.769 15.606c0.2302 0.2187 0.5025 0.3899 0.8009 0.5036s0.6168 0.1675 0.9366 0.1584c0.6457-0.0152 1.2589-0.2816 1.7055-0.7408 0.2208-0.2272 0.3932-0.4955 0.5074-0.7891 0.1141-0.2936 0.1675-0.6067 0.1572-0.9209 2e-4 -0.3172-0.0645-0.6312-0.1902-0.9233s-0.3098-0.5563-0.5414-0.7769-0.506-0.3931-0.8067-0.5071c-0.3008-0.1141-0.6217-0.1674-0.9439-0.1569-0.6456 0.0153-1.2589 0.2816-1.7055 0.7408-0.2222 0.2266-0.3961 0.4946-0.5116 0.7882-0.1155 0.2937-0.1702 0.6071-0.161 0.9219 0.0023 0.319 0.0701 0.6343 0.1995 0.9268 0.1293 0.2925 0.3175 0.5563 0.5532 0.7753zm1.0009-1.7179c-0.0033-0.0869 0.0114-0.1737 0.043-0.2549 0.0317-0.0812 0.0797-0.1554 0.1411-0.2179 0.1252-0.1308 0.298-0.2073 0.4805-0.2128 0.0893-0.0021 0.1783 0.0132 0.2617 0.0449 0.0834 0.0318 0.1596 0.0794 0.2243 0.1401s0.1166 0.1334 0.1527 0.2139 0.0558 0.1672 0.0579 0.2552c0.0012 0.1786-0.0676 0.3508-0.1922 0.4807-0.0603 0.0642-0.1333 0.1155-0.2146 0.1507s-0.169 0.0537-0.2578 0.0542c-0.0896 0.0033-0.1789-0.011-0.2628-0.0421s-0.1606-0.0784-0.2256-0.1392c-0.0652-0.0593-0.1174-0.1312-0.1532-0.2112-0.0358-0.0799-0.0545-0.1663-0.055-0.2537z"/>
   <path d="m16.185 21.919c-0.2042-0.0158-0.4084 0.031-0.5845 0.134l-0.1281 0.1103c-0.1014 0.081-0.1849 0.1814-0.2455 0.2953-0.0605 0.1138-0.0969 0.2385-0.1069 0.3666-0.0124 0.1282 9e-4 0.2576 0.0394 0.3806 0.0385 0.1231 0.1013 0.2375 0.1848 0.3366 0.1733 0.1972 0.417 0.3213 0.6807 0.3467h0.088c0.232 0.0015 0.4567-0.0797 0.6326-0.2285l0.048-0.0158c0.177-0.1628 0.2855-0.3849 0.3043-0.6225 0.0132-0.1287 1e-4 -0.2586-0.0385-0.3822-0.0385-0.1235-0.1019-0.2383-0.1862-0.3374s-0.1879-0.1806-0.3047-0.2398c-0.1168-0.0591-0.2444-0.0947-0.3754-0.1045z"/>
   <path d="m19.996 32.376c-0.2251 0.2212-0.4032 0.4841-0.5242 0.7736s-0.1823 0.5998-0.1805 0.9128c-0.0018 0.313 0.0595 0.6233 0.1805 0.9127 0.121 0.2895 0.2991 0.5525 0.5242 0.7737 0.2237 0.2252 0.4909 0.4041 0.7858 0.5263 0.2949 0.1221 0.6117 0.185 0.9317 0.185s0.6368-0.0629 0.9317-0.185c0.2949-0.1222 0.5621-0.3011 0.7858-0.5263 0.4557-0.4499 0.712-1.059 0.7127-1.6943 8e-4 -0.3154-0.0626-0.6278-0.1863-0.9188-0.1238-0.291-0.3055-0.5547-0.5344-0.7755-0.4647-0.4296-1.0791-0.6675-1.7167-0.6646s-1.2497 0.2465-1.7103 0.6804z"/>
  </g>
  <path d="m18.395 10.469-2.0018-5.2169c-0.1602-0.41767-0.1201-0.41767-0.5125-0.2837l-1.3452 0.50435c-0.4484 0.16549-0.4083 0.11033-0.2402 0.55163l1.8336 4.7913c0.1085 0.2542 0.1916 0.5181 0.2483 0.7881 0.0603 0.2273 0.0603 0.4661 0 0.6935-0.0751 0.1489-0.182 0.2802-0.3132 0.3849-0.1313 0.1047-0.2839 0.1804-0.4475 0.2219l0.8007 2.0331 0.4964-0.1812c0.3937-0.1602 0.7437-0.4091 1.0218-0.7266 0.2781-0.3176 0.4767-0.6949 0.5797-1.1017 0.2222-0.8118 0.1802-1.6717-0.1201-2.4587z" fill="#0074d3"/>
  <path d="m10.067 7.1427c-0.38433 0.14973-0.35231 0.12609-0.19216 0.54376l1.9938 5.2169c0.2919 0.7962 0.8366 1.4787 1.5534 1.9465 0.3551 0.2402 0.7632 0.3941 1.1905 0.4489 0.4274 0.0548 0.8618 9e-3 1.2677-0.1337l0.4964-0.1813-0.8007-2.0331c-0.1503 0.0755-0.3154 0.1182-0.4841 0.125-0.1686 0.0068-0.3367-0.0224-0.4928-0.0856-0.1967-0.1346-0.3585-0.3127-0.4724-0.5201-0.1436-0.2517-0.2642-0.5154-0.3603-0.7881l-1.7776-4.7834c-0.1681-0.44131-0.1041-0.42555-0.5525-0.26006z" fill="#f60"/>
  <path d="m40.894 9.5703-0.2162-0.11033-0.5765 0.88266c0.0744 0.035 0.1402 0.0856 0.1927 0.1482 0.0526 0.0626 0.0906 0.1357 0.1116 0.2143 6e-4 0.1141-0.024 0.2271-0.0721 0.3309-0.0556 0.1265-0.1226 0.2478-0.2001 0.3625l-1.3533 2.0805c-0.1281 0.197-0.1361 0.1655 0.0561 0.2916l0.5925 0.3704c0.1682 0.1024 0.1522 0.0945 0.2643-0.0867l1.4733-2.2696c0.227-0.3409 0.339-0.7434 0.3203-1.1506-0.0085-0.2049-0.0668-0.4048-0.1699-0.583-0.103-0.17827-0.248-0.32962-0.4227-0.44143z" fill="#0074d3"/>
  <path d="m36.923 12.549 0.5845 0.3625c0.1921 0.1261 0.1601 0.1261 0.2882-0.063l1.3532-2.0884c0.0736-0.1167 0.1566-0.2273 0.2483-0.3309 0.0729-0.0887 0.1662-0.1589 0.2722-0.2049 0.0815-0.0123 0.1647-0.0082 0.2445 0.0121 0.0799 0.0204 0.1547 0.0564 0.2199 0.1061l0.5685-0.88263-0.2162-0.13397c-0.1796-0.1053-0.3816-0.16796-0.5901-0.18301s-0.4177 0.01793-0.6109 0.09632c-0.3894 0.15479-0.7159 0.43183-0.9289 0.78809l-1.4733 2.2695c-0.1201 0.1498-0.1281 0.1419 0.0401 0.2522z" fill="#f60"/>
  <path d="m34.066 26.009c-0.428-0.7875-1.0978-1.4218-1.9137-1.8126-0.4067-0.2041-0.8567-0.3105-1.3132-0.3105s-0.9065 0.1064-1.3132 0.3105l-0.4884 0.268 1.113 2.0095c0.1465-0.0999 0.3131-0.1677 0.4885-0.199 0.1754-0.0312 0.3556-0.0252 0.5284 0.0177 0.2284 0.1127 0.426 0.2776 0.5765 0.4808 0.1885 0.2463 0.3521 0.5103 0.4884 0.788l2.6344 4.7283c0.2482 0.4413 0.1761 0.4334 0.6245 0.197l1.3212-0.6856c0.3764-0.2128 0.3443-0.1812 0.1201-0.5989z" fill="#0074d3"/>
  <path d="m29.972 28.838c-0.1506-0.2515-0.2791-0.5151-0.3843-0.788-0.0933-0.2327-0.129-0.484-0.1041-0.7329 0.0571-0.1657 0.1495-0.3175 0.271-0.4453 0.1215-0.1277 0.2693-0.2285 0.4336-0.2955l-1.113-2.0095-0.4884 0.2679c-0.3959 0.2229-0.7328 0.5347-0.9833 0.9099-0.2504 0.3752-0.4073 0.8032-0.458 1.2494-0.1086 0.8865 0.0738 1.7839 0.5205 2.5611l2.8585 5.1224c0.2242 0.4176 0.1842 0.4255 0.5765 0.2285l1.3372-0.725c0.4404-0.2364 0.4084-0.1813 0.1681-0.6147z" fill="#f60"/>
  <path d="m10.196 40.982c0.3844 0.4177 0.3363 0.3862 0.8007 0l5.9173-5.0514c0.9045-0.7578 1.541-1.7788 1.8176-2.9158 0.1423-0.5721 0.1439-1.1694 0.0046-1.7423-0.1392-0.5729-0.4153-1.1049-0.8053-1.5517l-0.4804-0.5438-2.2581 1.9071c0.1692 0.1575 0.3023 0.3485 0.3906 0.5604 0.0884 0.212 0.1299 0.44 0.1219 0.669-0.0774 0.3168-0.2343 0.6094-0.4564 0.8511-0.2609 0.3019-0.5475 0.5813-0.8568 0.8353l-5.4288 4.618c-0.50445 0.4255-0.51245 0.3388-0.08007 0.8353z" fill="#0074d3"/>
  <path d="m17.513 29.161-0.4724-0.5437c-0.3987-0.4367-0.8967-0.7743-1.4534-0.9853-0.5567-0.2109-1.1562-0.2891-1.7495-0.2283-1.1878 0.1074-2.3098 0.585-3.2028 1.3633l-5.9173 5.0514c-0.47241 0.4019-0.49644 0.3546-0.12811 0.788l1.3052 1.4816c0.44039 0.4964 0.35231 0.4728 0.84875 0.0394l5.4369-4.6022c0.2942-0.2655 0.6132-0.5029 0.9528-0.7093 0.2771-0.184 0.5962-0.2977 0.9288-0.3309 0.232 0.0229 0.4561 0.0955 0.6567 0.2125 0.2005 0.1171 0.3726 0.2758 0.5044 0.4652l2.298-2.0017z" fill="#f60"/>
  <path d="m44.537 19.444c-0.0881 0.1813-0.2242 0.3389-0.3523 0.3625-0.1211 0.0282-0.2472 0.0282-0.3683 0-0.1433-0.0435-0.2826-0.0989-0.4164-0.1654l-2.4021-1.1427c-0.2242-0.1025-0.2002-0.1261-0.3043 0.0946l-0.3203 0.6698c-0.0881 0.197-0.0881 0.1734 0.1281 0.2758l2.6584 1.2451c0.3986 0.1956 0.8508 0.2592 1.2891 0.1813 0.2246-0.0408 0.436-0.1336 0.617-0.2706s0.3263-0.3144 0.424-0.5175l0.1121-0.2443z" fill="#0074d3"/>
  <path d="m45.691 19.705c0.0939-0.1993 0.1379-0.4178 0.1281-0.6372-0.0097-0.2194-0.0729-0.4333-0.1841-0.6237-0.2153-0.3857-0.5487-0.6946-0.9529-0.8826l-2.6584-1.2451c-0.2161-0.0946-0.2001-0.1104-0.2962 0.0788l-0.3203 0.6619c-0.1121 0.2207-0.1121 0.1892 0.1121 0.2995l2.4021 1.1426c0.1349 0.0585 0.2636 0.1297 0.3844 0.2128 0.1066 0.0637 0.1948 0.1532 0.2562 0.2601 0.0274 0.0822 0.0359 0.1694 0.0248 0.2553-0.011 0.0859-0.0414 0.1683-0.0889 0.2411l1.033 0.4886 0.1121-0.2443z" fill="#f60"/>
  <path d="m27.754 10.587 0.1921 0.1104 0.4565-0.78809c-0.0676-0.02796-0.1283-0.06986-0.1781-0.12288-0.0497-0.05302-0.0873-0.11592-0.1102-0.18446-0.0054-0.09881 0.0082-0.19772 0.04-0.29158 0.0453-0.11397 0.0988-0.22458 0.1602-0.33098l1.0729-1.915c0.0961-0.17337 0.1121-0.14973-0.064-0.2443l-0.5205-0.32309c-0.1521-0.07881-0.1361-0.07093-0.2322 0.09456l-1.1851 2.0804c-0.1729 0.3184-0.2374 0.68302-0.1841 1.0402 0.0161 0.17819 0.0745 0.35021 0.1704 0.50211 0.096 0.1519 0.2268 0.2796 0.3821 0.3726z" fill="#0074d3"/>
  <path d="m28.179 10.831c0.1657 0.08 0.3479 0.1216 0.5324 0.1216 0.1846 0 0.3668-0.0416 0.5325-0.1216 0.3404-0.1526 0.6214-0.4098 0.8007-0.7329l1.1611-2.0647c0.0961-0.16549 0.1041-0.15761-0.0481-0.24429l-0.5445-0.29158c-0.1761-0.10245-0.1441-0.10245-0.2482 0.0788l-1.0889 1.8834c-0.0545 0.10727-0.1217 0.20779-0.2002 0.29945-0.0588 0.08434-0.1388 0.15222-0.2322 0.19702-0.0697 0.01783-0.1426 0.02001-0.2133 0.00637s-0.1374-0.04275-0.1951-0.08518l-0.4564 0.78803z" fill="#f60"/>
  <path d="m23.095 36.017c-0.1201-0.1812-0.1121-0.1654-0.3123-0.0394l-2.5302 1.5761c-0.3835 0.2368-0.6807 0.5872-0.8488 1.0009-0.0882 0.2077-0.1254 0.4329-0.1087 0.6575 0.0167 0.2245 0.0868 0.442 0.2048 0.6349l0.1521 0.2285 0.9849-0.6147c-0.055-0.0695-0.0948-0.1496-0.1169-0.235-0.022-0.0855-0.0259-0.1745-0.0112-0.2615 0.0538-0.1134 0.13-0.2152 0.2242-0.2994 0.1175-0.0962 0.2404-0.1856 0.3683-0.2679l2.3221-1.4501c0.2162-0.1339 0.2162-0.1024 0.08-0.3152z" fill="#0074d3"/>
  <path d="m24.873 38.752-0.4084-0.6305c-0.1361-0.2127-0.1041-0.197-0.3203-0.063l-2.322 1.4579c-0.1263 0.0832-0.2604 0.1544-0.4004 0.2127-0.114 0.056-0.2413 0.0805-0.3683 0.071-0.0856-0.0217-0.1656-0.061-0.2346-0.1153-0.069-0.0544-0.1255-0.1225-0.1658-0.2l-0.9848 0.6147 0.1521 0.2364c0.1261 0.1872 0.2957 0.3421 0.4949 0.4518 0.1992 0.1096 0.422 0.1709 0.6501 0.1787 0.4531 0.0264 0.9026-0.0925 1.2811-0.3389l2.5303-1.5761c0.2082-0.1339 0.2162-0.1103 0.0961-0.2994z" fill="#f60"/>
  <path d="m19.196 46.246c-0.1855-0.0391-0.3788-0.0198-0.5525 0.0551-0.088 0.0374-0.1658 0.0947-0.227 0.1673s-0.1041 0.1584-0.1253 0.2504v0.1182l0.4804 0.0946c0.0036-0.0368 0.0147-0.0725 0.0326-0.105 0.0178-0.0325 0.0422-0.0611 0.0715-0.0842 0.053-0.0088 0.1072-0.0088 0.1602 0h0.1841l1.129 0.2286c0.1041 0 0.0961 0 0.1121-0.071l0.0641-0.3073c0-0.0867 0-0.0788-0.0801-0.1024z" fill="#0074d3"/>
  <path d="m19.075 47.286c-0.0633-0.0073-0.1252-0.0232-0.1841-0.0473-0.0509-0.0194-0.0972-0.0489-0.1361-0.0867-0.0153-0.0334-0.0232-0.0697-0.0232-0.1063 0-0.0367 0.0079-0.073 0.0232-0.1064l-0.4805-0.0946v0.1182c-0.0172 0.0924-0.0125 0.1874 0.0139 0.2777 0.0264 0.0902 0.0737 0.1732 0.1383 0.2424 0.13 0.1363 0.3014 0.2275 0.4884 0.2601l1.2251 0.2443c0.1041 0 0.0961 0 0.1201-0.0552l0.056-0.3073c0-0.1025 0-0.0946-0.072-0.1104z" fill="#f60"/>
  <path d="m26.346 45.592c-0.1601-0.1891-0.1121-0.1734-0.2242-0.0788l-0.1281 0.0709c-0.3236 0.1873-0.6996 0.2674-1.0729 0.2286-0.2277-0.0234-0.4483-0.0911-0.6491-0.1994-0.2007-0.1082-0.3775-0.2548-0.52-0.4311l-1.2811 1.0166c0.5384 0.6531 1.3067 1.0829 2.1523 1.2041 0.8455 0.1212 1.7065-0.0752 2.4118-0.55 0.2402-0.1655 0.2081-0.0946 0.048-0.3074z" fill="#0074d3"/>
  <path d="m23.2 41.691c-0.1841-0.2049-0.104-0.2128-0.3282 0-0.6245 0.5754-1.0059 1.3612-1.0682 2.2009-0.0624 0.8397 0.1989 1.6717 0.7319 2.3304l1.2811-1.0166c-0.2874-0.3558-0.4199-0.8092-0.3683-1.2609 0.0456-0.3667 0.205-0.7107 0.4564-0.985l0.0961-0.0946c0.1201-0.0946 0.1281 0 0-0.2364z" fill="#f60"/>
  <path d="m32.889 1.8395c-0.6082-0.40623-1.3428-0.58767-2.0738-0.51223-0.2642 0-0.2162 0-0.1762 0.22853l0.2002 1.0639c0.0481 0.22066 0 0.18913 0.1441 0.15761h0.1282c0.3757-0.00708 0.7421 0.11613 1.0348 0.34808 0.2928 0.23196 0.4934 0.55787 0.5666 0.92068l1.4653-0.26794c-0.1539-0.78794-0.6171-1.4844-1.2892-1.9386z" fill="#0074d3"/>
  <path d="m34.169 3.7544-1.4733 0.26793c0.0732 0.4068-0.0188 0.82562-0.2563 1.1663-0.1958 0.27615-0.4765 0.48328-0.8007 0.59104h-0.1201c-0.1361 0-0.1201 0-0.08 0.20489l0.2081 1.1112c0.0561 0.23641 0 0.21277 0.2483 0.14973 0.7594-0.18756 1.4175-0.65319 1.8401-1.3019 0.4225-0.64873 0.5777-1.4317 0.4339-2.1891z" fill="#f60"/>
  <path d="m3.3168 17.112c0.24021 0.2206 0.17616 0.2048 0.30427 0.063l0.14413-0.1182c0.3773-0.2977 0.8386-0.4738 1.3212-0.5044 0.59176-0.0164 1.1666 0.1958 1.6014 0.5911l1.4413-1.521c-0.41767-0.3873-0.90977-0.6886-1.4474-0.8862-0.53764-0.1976-1.11-0.2874-1.6834-0.2643-1.0479 0.0378-2.0476 0.4431-2.8185 1.1427-0.28025 0.26-0.25623 0.1576 0 0.4098z" fill="#0074d3"/>
  <path d="m7.4175 18.719c0.01511 0.4747-0.12524 0.9416-0.40036 1.3318-0.02982 0.053-0.06467 0.1032-0.10409 0.1497-0.12811 0.1419-0.15213 0.071 0.08007 0.2995l1.145 1.0481c0.27224 0.2285 0.16815 0.2522 0.41637 0 0.69291-0.8445 1.0359-1.9156 0.96014-2.9986-0.07573-1.0829-0.56456-2.0977-1.3685-2.8408l-1.4333 1.4657c0.21499 0.1992 0.38791 0.4381 0.50882 0.7032 0.12092 0.265 0.18746 0.551 0.1958 0.8414z" fill="#f60"/>
  <path d="m18.195 8.2539c0.7276 1.0702 1.817 1.8519 3.0747 2.2065 0.6906 0.194 1.4135 0.2514 2.1267 0.1689 0.7133-0.0825 1.4029-0.3033 2.029-0.64959l-1.2811-2.238c-0.3227 0.17688-0.6778 0.28887-1.0449 0.32945-0.367 0.04059-0.7385 0.00896-1.093-0.09304-0.5806-0.16184-1.0938-0.50132-1.4653-0.9693-0.05-0.05691-0.0955-0.1175-0.1362-0.18125-0.1201-0.20489 0-0.21277-0.3923 0l-1.7055 0.94566c-0.3764 0.21277-0.3683 0.11032-0.1121 0.48071z" fill="#0074d3"/>
  <path d="m24.152 7.7576 1.2972 2.2696c1.2005-0.66812 2.1003-1.758 2.519-3.0512s0.3255-2.6945-0.261-3.923c-0.2082-0.41766-0.0881-0.3625-0.4884-0.16549l-1.7056 0.94566c-0.3603 0.20489-0.3122 0.12609-0.1921 0.33886 0.0365 0.06508 0.066 0.13376 0.088 0.2049 0.2097 0.55829 0.2377 1.1669 0.0801 1.7416-0.1016 0.3467-0.2721 0.67012-0.5016 0.95149-0.2296 0.28137-0.5136 0.5151-0.8356 0.68765z" fill="#f60"/>
  <path d="m36.075 21.115-6.6379 0.8826c-0.0881 0-0.1522 0.071-0.1201 0.2364l0.2882 1.9386c0 0.1655 0.1041 0.2286 0.1842 0.2128l6.6459-0.8826z" fill="#0074d3"/>
  <path d="m43.216 22.368-0.3043-1.9386c0-0.1734-0.1041-0.2049-0.1842-0.1891l-6.6459 0.8826 0.3764 2.3641 6.6379-0.8826c0.1201 0.0079 0.1201-0.0709 0.1201-0.2364z" fill="#f60"/>
  <path d="m26.499 32.825-7.7189-4.9568c-0.0961-0.0709-0.1922-0.0946-0.2642 0l-0.8007 1.2294c-0.0152 0.0221-0.0252 0.0472-0.0294 0.0736-0.0041 0.0263-0.0023 0.0533 0.0054 0.0789 0.0076 0.0256 0.0209 0.0492 0.0389 0.0691 0.018 0.02 0.0402 0.0358 0.0651 0.0463l7.7109 4.9647z" fill="#0074d3"/>
  <path d="m33.215 39.343c0.0201 0.0179 0.0438 0.0311 0.0697 0.0389 0.0258 0.0078 0.0531 0.0099 0.0798 0.0061 0.0268-0.0038 0.0523-0.0133 0.0749-0.0278 0.0226-0.0146 0.0417-0.0339 0.0559-0.0566l0.8007-1.2293c0.072-0.1103 0-0.1891-0.0881-0.2522l-7.7188-4.9647-1.0009 1.5209z" fill="#f60"/>
  <path d="m11.596 4.487v-0.09456l-0.4084-0.55952c0-0.04728-0.072-0.05516-0.088-0.0394l-1.6015 1.2057 0.54447 0.6856z" fill="#0074d3"/>
  <path d="m8.3783 6.8748c0 0.05516 0.06406 0.05516 0.08808 0l1.6015-1.2057-0.54452-0.69348-1.6014 1.2057v0.09456z" fill="#f60"/>
  <path d="m0.7793 25.394 0.80071 2.2459h0.1041l0.80071-0.2758c0.06406 0 0.08808-0.0552 0.08007-0.0788l-0.80071-2.246z" fill="#0074d3"/>
  <path d="m0.87528 22.81-0.80071 0.2758c-0.072064 0-0.080071 0.0552-0.072064 0.0867l0.80071 2.2381 1.0089-0.3389-0.81673-2.2144s-0.048043-0.0709-0.12011-0.0473z" fill="#f60"/>
  <path d="m12.725 25.702c-0.048 0-0.072 0-0.048 0.1497l0.2722 1.1979c0 0.1024 0.0721 0.1339 0.1121 0.126l3.379-0.788-0.3443-1.4736z" fill="#0074d3"/>
  <path d="m19.843 25.497-0.2722-1.1978c0-0.1025-0.0721-0.1261-0.1121-0.1182l-3.371 0.788 0.3443 1.4737 3.371-0.7881s0.064-0.0551 0.04-0.1576z" fill="#f60"/>
  <path d="m19.661 44.134-4.0035-1.2924-0.4645 1.2057 4.0436 1.2924c0.0481 0 0.0961 0 0.1282-0.0788l0.3282-1.0008c0.0481-0.0867 0.0161-0.1261-0.032-0.1261z" fill="#0074d3"/>
  <path d="m11.461 41.628-0.3283 1.0087c0 0.0867 0 0.1261 0.056 0.1419l4.0436 1.2924 0.4084-1.2373-4.0036-1.2924c-0.088-0.0157-0.1441 0-0.1761 0.0867z" fill="#f60"/>
  <path d="m10.068 24.204 0.6646 0.5043c0.056 0.0473 0.1121 0 0.1521 0l3.2028-4.0584-0.8007-0.6305-3.2028 4.0663c-0.0561 0.0158-0.0721 0.071-0.016 0.1183z" fill="#0074d3"/>
  <path d="m17.346 16.418-0.6646-0.5122c-0.064-0.0473-0.1121 0-0.1521 0.0394l-3.2028 4.0584 0.8007 0.6305 3.2028-4.0663c0.0561-0.0158 0.0721-0.1104 0.016-0.1498z" fill="#f60"/>
  <path d="m41.472 24.748-0.4484 0.3152v0.1025l2.0098 2.703 0.5445-0.3941-2.0178-2.703s-0.056-0.0551-0.0881-0.0236z" fill="#0074d3"/>
  <path d="m43.057 27.869 2.0098 2.703s0.0561 0.0551 0.0961 0l0.4404-0.3153c0.04 0 0-0.063 0-0.1024l-2.0098-2.6951z" fill="#f60"/>
  <path d="m33.609 40.548c-0.0106 0.441 0.0731 0.8794 0.2455 1.2866s0.4297 0.7743 0.7554 1.0775c0.6497 0.6089 1.5053 0.9597 2.4021 0.9851 0.0903 0.0042 0.1806-0.0095 0.2654-0.0404 0.0848-0.0308 0.1624-0.0782 0.2282-0.1393 0.0657-0.061 0.1183-0.1345 0.1546-0.216s0.0555-0.1694 0.0564-0.2584v-0.6777c0.0019-0.0887-0.0141-0.1768-0.0471-0.2593-0.033-0.0826-0.0823-0.1578-0.145-0.2214-0.0614-0.0655-0.1356-0.1181-0.2182-0.1546-0.0826-0.0366-0.1718-0.0564-0.2623-0.0582-0.3951-0.0014-0.7741-0.154-1.0569-0.4256-0.1191-0.1068-0.2142-0.2371-0.279-0.3823s-0.098-0.3022-0.0973-0.4609c0.0034-0.0881-0.0112-0.1761-0.0428-0.2586-0.0316-0.0826-0.0797-0.1581-0.1414-0.2221-0.0608-0.0662-0.1349-0.1192-0.2176-0.1559-0.0827-0.0366-0.1722-0.056-0.2628-0.0569h-0.8808c-0.173 0.043-0.3222 0.1504-0.4164 0.2995-0.0402 0.1083-0.0539 0.2244-0.04 0.3389z" fill="#0074d3"/>
 </g>
 <path d="m36.524 26.135c-0.0379 0.3737-0.2216 0.7184-0.5125 0.9614v0.0079c-0.2686 0.2237-0.609 0.3465-0.9608 0.3467h-0.1522c-0.1934-0.0174-0.3814-0.0724-0.5532-0.1616-0.1718-0.0893-0.3239-0.2111-0.4477-0.3585-0.2537-0.2928-0.3803-0.6721-0.3523-1.056-0.0049-0.0126-0.0049-0.0267 0-0.0394 0.0376-0.384 0.2275-0.7379 0.5285-0.985 0.2982-0.2359 0.675-0.354 1.0569-0.331 0.0073-0.0041 0.0156-0.0063 0.0241-0.0063 0.0084 0 0.0167 0.0022 0.024 0.0063 0.3901 0.037 0.7498 0.2239 1.0009 0.5201 0.2466 0.2932 0.3698 0.6683 0.3443 1.0481 0.0037 0.0156 0.0037 0.0318 0 0.0473z" fill="#f60"/>
</svg>
