<svg width="206.57" height="23.533" fill="none" version="1.1" viewBox="0 0 206.56845 23.53252" xmlns="http://www.w3.org/2000/svg">
 <g fill="#1f1d1d">
  <path d="m153.51 1.8752c1e-3 -0.22644-0.044-0.45079-0.134-0.65941-0.089-0.20862-0.221-0.39717-0.386-0.55418-0.178-0.17082-0.388-0.30434-0.619-0.39241-0.232-0.08807-0.479-0.12884-0.727-0.11982-0.365-5.9e-4 -0.723 0.10049-1.033 0.29158-0.308 0.18712-0.55 0.46194-0.696 0.78804l-0.16 0.37039v-0.09457c-1.073 1.9307-2.306 4.1294-3.491 6.3044-1.33 2.4115-2.531 4.5707-3.668 6.596l-0.16 0.2916v-12.822c3e-3 -0.22743-0.042-0.45299-0.133-0.66206s-0.226-0.39697-0.395-0.55153c-0.364-0.3312-0.842-0.51515-1.337-0.51515-0.496 0-0.974 0.18395-1.338 0.51515-0.176 0.14884-0.318 0.3338-0.415 0.54203-0.097 0.20822-0.146 0.4347-0.145 0.66368v19.938c-0.02 0.3145 0.049 0.6282 0.2 0.9062 0.109 0.2019 0.265 0.3749 0.456 0.5044 0.163 0.1185 0.348 0.2042 0.545 0.2522 0.144 0.0349 0.292 0.056 0.44 0.063 0.274 0.0061 0.546-0.0422 0.801-0.1418 0.22-0.0783 0.421-0.1988 0.593-0.3547 0.149-0.1312 0.291-0.2706 0.424-0.4176 0.095-0.1103 0.183-0.2261 0.264-0.3468 1.233-2.2065 2.44-4.3631 3.619-6.4699 1.033-1.8282 2.178-3.8772 3.604-6.4383l0.16-0.2916v12.735c-8e-3 0.233 0.037 0.4648 0.131 0.6788 0.094 0.2139 0.235 0.4047 0.413 0.5584 0.368 0.3149 0.838 0.4883 1.325 0.4883 0.488 0 0.958-0.1734 1.326-0.4883 0.17-0.1582 0.305-0.3503 0.395-0.5636 0.089-0.2133 0.132-0.4429 0.125-0.6736z"/>
  <path d="m130.34 22.979c0.359 0.316 0.825 0.4877 1.306 0.4808 0.495 0.0203 0.978-0.1524 1.345-0.4808 0.172-0.1551 0.309-0.3455 0.398-0.5579 0.09-0.2123 0.132-0.4415 0.122-0.6714v-19.938c-1e-3 -0.23006-0.051-0.45731-0.146-0.6675-0.095-0.21019-0.234-0.39879-0.406-0.55397-0.177-0.17082-0.388-0.30434-0.619-0.39241s-0.479-0.12884-0.726-0.11982c-0.477-0.00168-0.935 0.1825-1.274 0.51223-0.168 0.15446-0.302 0.34106-0.394 0.54839-0.092 0.20732-0.141 0.431-0.142 0.65732v7.3131h-7.367v-7.2973c0-0.23174-0.051-0.46064-0.149-0.67133-0.098-0.21069-0.241-0.39827-0.419-0.55014-0.178-0.1697-0.389-0.30249-0.62-0.39048-0.231-0.088-0.478-0.1294-0.725-0.12175-0.241-0.00429-0.48 0.0396-0.703 0.12901s-0.425 0.22246-0.594 0.3911c-0.176 0.14958-0.316 0.33487-0.411 0.54306-0.096 0.20818-0.144 0.43429-0.142 0.66265v19.938c-7e-3 0.2317 0.039 0.462 0.133 0.6745s0.235 0.402 0.412 0.5549c0.369 0.3103 0.839 0.4807 1.325 0.4807s0.955-0.1704 1.325-0.4807c0.174-0.1544 0.312-0.3445 0.403-0.5569s0.134-0.442 0.125-0.6725v-9.165h7.367v9.1729c-3e-3 0.2342 0.048 0.466 0.147 0.6787 0.1 0.2127 0.247 0.4008 0.429 0.5506z"/>
  <path d="m205.94 19.662c0.424-0.8111 0.639-1.7123 0.625-2.6242v-1.6549c0.018-0.9158-0.2-1.8212-0.633-2.6321-0.42-0.7563-0.98-1.4296-1.649-1.9859l-0.088-0.0709 0.088-0.0631c0.725-0.5045 1.305-1.1861 1.681-1.978 0.377-0.7086 0.583-1.4934 0.601-2.2932 0.012-0.9041-0.203-1.7972-0.625-2.6005-0.41-0.77007-0.97-1.4529-1.649-2.0095-0.71-0.57927-1.525-1.0205-2.402-1.3003-0.898-0.29772-1.839-0.44944-2.787-0.44919-0.704 0-1.513 0-2.402 0.09457-0.833 0.05177-1.658 0.19719-2.458 0.43342-0.706 0.20578-1.355 0.56689-1.898 1.056-0.257 0.25088-0.457 0.55278-0.587 0.88566-0.13 0.33287-0.186 0.68911-0.165 1.045v16.391c-0.019 0.3647 0.043 0.729 0.181 1.0678 0.138 0.3387 0.35 0.644 0.619 0.8945 0.546 0.4838 1.194 0.8419 1.898 1.0481 0.8 0.2347 1.625 0.3749 2.458 0.4176 0.897 0.0473 1.682 0.0789 2.402 0.0789 0.943 0.0015 1.879-0.1503 2.771-0.4492 0.872-0.2871 1.686-0.7248 2.402-1.2924 0.671-0.5559 1.221-1.2394 1.617-2.0095zm-3.138-2.6242c6e-3 0.4261-0.098 0.8467-0.305 1.2214-0.198 0.355-0.471 0.6641-0.8 0.9063-0.357 0.257-0.755 0.4541-1.177 0.5831-0.442 0.1422-0.905 0.214-1.37 0.2128h-3.731v-7.5022h3.731c0.465-2e-3 0.927 0.0671 1.37 0.2049 0.425 0.1219 0.824 0.3195 1.177 0.5832 0.329 0.2453 0.602 0.5569 0.8 0.9141 0.207 0.3747 0.311 0.7953 0.305 1.2215zm-0.329-9.6142c-0.226 0.3417-0.523 0.6318-0.872 0.8511-0.355 0.2371-0.744 0.4204-1.153 0.5437-0.413 0.1243-0.842 0.1881-1.274 0.1892h-3.795v-5.3115h0.072c0.473-0.0788 0.993-0.13397 1.602-0.18125 0.608-0.04728 1.088-0.06304 1.601-0.06304 0.493-5.5e-4 0.985 0.05498 1.465 0.16549 0.469 0.09622 0.921 0.26372 1.337 0.49647 0.382 0.22026 0.705 0.52521 0.945 0.89049 0.256 0.40651 0.387 0.87731 0.377 1.3554 5e-3 0.3762-0.1 0.7458-0.305 1.0639z"/>
  <path d="m104.72 2.041c-0.074 0.45595-0.109 0.91731-0.104 1.3791v18.33c-9e-3 0.2304 0.034 0.46 0.125 0.6724 0.092 0.2124 0.229 0.4025 0.403 0.5569 0.37 0.3103 0.84 0.4808 1.326 0.4808 0.485 0 0.955-0.1705 1.325-0.4808 0.177-0.1529 0.317-0.3423 0.412-0.5548 0.094-0.2125 0.139-0.4428 0.132-0.6745v-18.267h5.862c0.247 0.01035 0.495-0.02824 0.727-0.11351 0.233-0.08527 0.445-0.21548 0.626-0.38296 0.165-0.15054 0.296-0.33362 0.384-0.53729s0.132-0.42337 0.128-0.64478c0.011-0.23638-0.028-0.47242-0.117-0.69251-0.088-0.22009-0.223-0.41919-0.395-0.58413-0.371-0.32735-0.856-0.49979-1.353-0.48071h-5.605c-0.74-0.01938-1.478 0.06284-2.194 0.2443-0.449 0.1186-0.856 0.35569-1.177 0.6856-0.268 0.29985-0.444 0.66907-0.505 1.0639z"/>
  <path d="m186.07 2.1118c-0.681-0.63335-1.481-1.1311-2.354-1.4658-0.919-0.35267-1.897-0.5318-2.883-0.52799-1.038-0.00995-2.07 0.16905-3.042 0.52799-0.89 0.32305-1.707 0.81581-2.403 1.45-0.655 0.61479-1.175 1.355-1.529 2.175-0.371 0.84833-0.56 1.7634-0.552 2.6872v9.8742c2e-3 0.873 0.21 1.7336 0.608 2.5139 0.415 0.8014 0.971 1.5243 1.642 2.1356 0.701 0.6271 1.516 1.119 2.402 1.45 0.911 0.3484 1.88 0.5274 2.858 0.528 0.988 0.0055 1.967-0.1793 2.883-0.5437 0.87-0.3454 1.67-0.8419 2.362-1.4658 0.666-0.6179 1.209-1.3529 1.601-2.1671 0.394-0.8231 0.597-1.7223 0.593-2.6321v-9.6615c5e-3 -0.9251-0.198-1.8398-0.593-2.6793-0.386-0.82454-0.927-1.5703-1.593-2.1986zm-1.601 14.571c2e-3 0.4449-0.099 0.8845-0.297 1.2845-0.2 0.4013-0.471 0.7642-0.8 1.0718-0.347 0.3073-0.745 0.5526-1.177 0.725-0.907 0.3466-1.913 0.3466-2.819 0-0.431-0.1676-0.829-0.4076-1.177-0.7093-0.333-0.2988-0.604-0.6571-0.801-1.056-0.2-0.3994-0.304-0.839-0.304-1.2845v-9.756c-1e-3 -0.4633 0.095-0.9218 0.28-1.3476 0.192-0.4154 0.464-0.79009 0.801-1.1032 0.343-0.31562 0.742-0.56669 1.177-0.74076 0.924-0.36805 1.958-0.36805 2.883 0 0.431 0.17235 0.825 0.42372 1.161 0.74076 0.332 0.3173 0.603 0.69102 0.8 1.1032 0.199 0.4222 0.3 0.8824 0.297 1.3476z"/>
  <path d="m170.72 0.53553c-0.369-0.31427-0.841-0.48521-1.329-0.48071h-11.146c-0.486-0.00551-0.956 0.16568-1.321 0.48071-0.177 0.1529-0.318 0.34234-0.412 0.55484-0.094 0.21249-0.139 0.4428-0.133 0.67451-3e-3 0.22969 0.045 0.45732 0.14 0.66696 0.095 0.20963 0.236 0.3962 0.413 0.54663 0.352 0.33354 0.824 0.51748 1.313 0.51223h3.651v18.259c-7e-3 0.2341 0.04 0.4667 0.139 0.6799 0.098 0.2131 0.246 0.4011 0.43 0.5495 0.374 0.3106 0.847 0.4809 1.337 0.4809 0.489 0 0.963-0.1703 1.337-0.4809 0.174-0.1544 0.312-0.3445 0.403-0.5569s0.134-0.442 0.125-0.6725v-18.259h3.724c0.495 0.00474 0.972-0.18202 1.329-0.52011 0.175-0.14957 0.316-0.33487 0.411-0.54305 0.095-0.20819 0.144-0.43429 0.141-0.66266 6e-3 -0.23233-0.04-0.46302-0.136-0.67555-0.095-0.21254-0.238-0.40165-0.416-0.5538z"/>
  <path d="m43.213 14.279h0.097c0.629 0.1046 1.267 0.1574 1.905 0.1576h1.722c0.962 2e-3 1.917-0.1552 2.826-0.4649 0.87-0.2846 1.683-0.7167 2.402-1.2767 0.667-0.553 1.212-1.2341 1.602-2.0016 0.411-0.8064 0.62-1.6983 0.608-2.6006v-1.6628c0.018-0.9205-0.191-1.8314-0.61-2.6549-0.418-0.82347-1.033-1.5349-1.792-2.0734-0.78-0.54558-1.649-0.95601-2.57-1.2136-0.969-0.28455-1.975-0.42791-2.987-0.42555-0.664 0-1.385 0-2.21 0.09457-0.772 0.05535-1.536 0.20084-2.274 0.43342-0.665 0.20947-1.267 0.57765-1.753 1.0717-0.243 0.26407-0.43 0.57265-0.551 0.90803s-0.173 0.69096-0.154 1.0463v18.164c-2e-3 0.2265 0.049 0.4503 0.147 0.655 0.099 0.2047 0.243 0.3848 0.422 0.5271 0.357 0.325 0.827 0.5027 1.313 0.4965 0.497 0.0182 0.982-0.1541 1.353-0.4807 0.176-0.1537 0.315-0.3434 0.407-0.5559 0.093-0.2125 0.137-0.4424 0.129-0.6735zm0-10.473h0.064c0.545-0.12345 1.1-0.20252 1.658-0.23641 0.592 0 1.145-0.06305 1.649-0.06305 0.484-7e-4 0.966 0.06022 1.434 0.18125 0.452 0.11334 0.884 0.29405 1.281 0.53588 0.392 0.21725 0.725 0.52567 0.969 0.89839 0.247 0.3921 0.372 0.8468 0.36 1.3081v1.6471c9e-3 0.4779-0.122 0.9483-0.376 1.3554-0.243 0.3746-0.573 0.6877-0.961 0.9141-0.415 0.2366-0.867 0.4043-1.337 0.4965-0.487 0.1018-0.984 0.1546-1.482 0.1576h-1.561c-0.633 0-1.137-0.0394-1.601-0.063h-0.081z"/>
  <path d="m14.846 1.7416c-0.0147-0.43397-0.1982-0.84583-0.5125-1.1505-0.3069-0.28786-0.7022-0.46727-1.124-0.51006-0.4217-0.04278-0.8459 0.05346-1.206 0.27365-0.3011 0.17324-0.5541 0.41684-0.7367 0.70924-0.6966 1.3633-1.3932 2.703-1.9137 3.7196-0.6459 1.2136-1.2891 2.443-1.9297 3.6881l-0.0721 0.1497-0.08-0.1497c-0.3203-0.662-0.6326-1.2845-0.9289-1.8756l-0.2001-0.4019c-0.2242-0.457-0.4564-0.9141-0.6726-1.3633l-0.2403-0.48071c-0.2081-0.43342-0.4163-0.86685-0.6325-1.3003l-0.2883-0.57527-0.4804-0.97718v0.12609l-0.1601-0.40979c-0.1405-0.34136-0.3765-0.63648-0.6806-0.85109-0.324-0.22161-0.7105-0.33739-1.105-0.33098-0.4912-0.00397-0.9648 0.17965-1.3212 0.51223-0.1758 0.14797-0.3169 0.33167-0.4137 0.53845-0.0967 0.20678-0.1468 0.43173-0.1468 0.65938v19.946c-0.0047 0.2329 0.0431 0.464 0.14 0.6766 0.097 0.2126 0.2406 0.4013 0.4205 0.5527 0.3659 0.3138 0.8359 0.4848 1.3212 0.4807 0.4969 0.0158 0.9811-0.1562 1.3532-0.4807 0.1741-0.1543 0.3117-0.3444 0.403-0.5569 0.0913-0.2124 0.1341-0.4419 0.1254-0.6724v-11.978l1.8417 3.6723c0.1416 0.3107 0.3743 0.5727 0.6682 0.7524 0.2938 0.1797 0.6355 0.2689 0.9812 0.2563 0.3675-1e-3 0.7265-0.1078 1.033-0.3073 0.2972-0.1779 0.5405-0.431 0.7046-0.7329 0.3603-0.6619 0.7046-1.3475 0.9688-1.8677 0.3203-0.6462 0.6406-1.2766 0.9689-1.8676l0.1601-0.2995v12.372c-0.0047 0.2329 0.0432 0.464 0.1401 0.6766s0.2405 0.4013 0.4204 0.5527c0.3644 0.3164 0.8354 0.4878 1.3212 0.4807 0.4973 0.0183 0.9824-0.154 1.3532-0.4807 0.1741-0.1543 0.3117-0.3444 0.403-0.5569 0.0913-0.2124 0.1342-0.4419 0.1255-0.6724z"/>
  <path d="m83.425 1.7415c-0.012-0.43305-0.193-0.84504-0.505-1.1505-0.179-0.17561-0.393-0.31257-0.629-0.40212-0.235-0.08956-0.488-0.12974-0.74-0.118-0.343 0.00461-0.679 0.10281-0.969 0.2837-0.297 0.17552-0.547 0.41877-0.729 0.70925-0.64 1.2609-1.305 2.5296-1.921 3.7196l-1.922 3.688-0.08 0.1498-0.04-0.1498-0.937-1.8755-0.2-0.4019-0.673-1.3634-0.232-0.48071c-0.208-0.43343-0.416-0.86685-0.64-1.3003l-0.281-0.57528-0.488-0.9693v0.12609l-0.168-0.40978c-0.138-0.34294-0.375-0.63877-0.681-0.8511-0.363-0.23969-0.797-0.35216-1.233-0.31928s-0.848 0.20919-1.169 0.50053c-0.177 0.14723-0.32 0.3306-0.418 0.53742-0.098 0.20682-0.15 0.43215-0.151 0.66042v19.938c-7e-3 0.2341 0.041 0.4667 0.139 0.6798 0.099 0.2132 0.246 0.4012 0.43 0.5496 0.363 0.3138 0.83 0.485 1.313 0.4807 0.497 0.0182 0.983-0.1541 1.353-0.4807 0.174-0.1544 0.312-0.3445 0.403-0.5569 0.092-0.2124 0.134-0.442 0.126-0.6725v-11.978l1.849 3.6723c0.141 0.3113 0.374 0.5739 0.668 0.7537s0.636 0.2687 0.982 0.255c0.367-1e-3 0.726-0.1078 1.033-0.3073 0.295-0.1803 0.538-0.4328 0.704-0.7329 0.281-0.528 0.577-1.1033 0.969-1.8677 0.393-0.7644 0.641-1.2766 0.961-1.8677l0.16-0.2994v12.372c-4e-3 0.233 0.043 0.4641 0.14 0.6766 0.097 0.2126 0.241 0.4014 0.421 0.5528 0.367 0.3162 0.841 0.4874 1.329 0.4807 0.497 0.0182 0.982-0.1541 1.353-0.4807 0.173-0.1551 0.309-0.3455 0.399-0.5579s0.131-0.4416 0.122-0.6715z"/>
  <path d="m101.71 21.459c-8e-3 -0.0563-0.021-0.1118-0.04-0.1655l-5.565-19.914c-0.126-0.36421-0.357-0.68453-0.665-0.92201-0.302-0.2568-0.689-0.39681-1.089-0.39403-0.418 0.00516-0.821 0.15592-1.137 0.42555-0.363 0.2862-0.64 0.66507-0.8 1.0954-0.873 3.2704-1.786 6.596-2.699 9.8584-0.52 1.8441-1.033 3.6881-1.553 5.5164-0.401 1.4421-0.801 2.8842-1.209 4.3263-0.046 0.1154-0.068 0.2387-0.064 0.3625 0 0.4609 0.181 0.9038 0.504 1.2373 0.173 0.1778 0.382 0.3175 0.614 0.4099 0.232 0.0923 0.481 0.1353 0.731 0.1259 0.414 0 0.816-0.1328 1.145-0.3782 0.331-0.2358 0.571-0.5746 0.681-0.9614v-0.1655l0.801-2.7582 0.312-1.1505 0.48-1.7416v-0.0631h4.188l0.28 1.0008 0.561 1.9859 0.04 0.134c0.256 0.9062 0.52 1.8361 0.8 2.7739 0.115 0.3871 0.364 0.722 0.705 0.9457 0.327 0.2397 0.722 0.3721 1.129 0.3782 0.249 0.0129 0.498-0.0268 0.73-0.1166 0.232-0.0897 0.442-0.2273 0.615-0.4035 0.315-0.3126 0.493-0.734 0.497-1.1742 0.014-0.0886 0.017-0.1786 8e-3 -0.2679zm-8.552-8.7158 0.08-0.2679c0.168-0.6068 0.321-1.1663 0.465-1.7022l0.16-0.5674 0.336-1.2215 0.08-0.2994 0.088 0.2915c0.056 0.2128 0.112 0.4098 0.16 0.5832l0.136 0.4728c0 0.134 0.073 0.2522 0.105 0.3783s0.088 0.3073 0.128 0.457c0.04 0.1498 0.144 0.5123 0.224 0.7881 0 0.1418 0.088 0.3073 0.136 0.4886 0.048 0.1812 0.088 0.3231 0.144 0.4965v0.1024z"/>
  <path d="m31.434 23.042c0.3553 0.3215 0.8226 0.4965 1.3052 0.4885 0.246 0.0108 0.4917-0.0268 0.7227-0.1107s0.4426-0.2124 0.6225-0.3778c0.1708-0.1583 0.3054-0.3504 0.3952-0.5637 0.0897-0.2133 0.1324-0.4428 0.1253-0.6736v-19.93c0.0013-0.22644-0.0441-0.45079-0.1336-0.65941s-0.2211-0.39717-0.3869-0.55418c-0.1763-0.17197-0.3868-0.30624-0.6182-0.39439-0.2315-0.08815-0.479-0.12827-0.727-0.11784-0.3654-5.9e-4 -0.7234 0.10049-1.0329 0.29157-0.3074 0.1856-0.5482 0.46114-0.6886 0.78805l-0.1682 0.37038v-0.09456c-1.2971 2.3169-2.4021 4.287-3.4831 6.3044-1.3452 2.443-2.5463 4.6022-3.6753 6.596l-0.1601 0.2915v-12.821c0.0084-0.22454-0.0307-0.44834-0.1148-0.65724s-0.2113-0.39835-0.3736-0.55635c-0.364-0.3312-0.8415-0.51515-1.3372-0.51515s-0.9732 0.18395-1.3372 0.51515c-0.1768 0.14883-0.3186 0.3338-0.4154 0.54202-0.0968 0.20823-0.1463 0.43471-0.1451 0.66369v19.938c-0.0198 0.3145 0.0495 0.6283 0.2002 0.9063 0.1114 0.2023 0.2707 0.3753 0.4644 0.5043 0.1618 0.1154 0.3436 0.2008 0.5365 0.2522 0.1471 0.0349 0.2972 0.056 0.4484 0.063 0.2737 0.0046 0.5457-0.0435 0.8007-0.1418 0.2161-0.0802 0.4146-0.2006 0.5845-0.3546 0.1532-0.1271 0.2952-0.2669 0.4244-0.4177 0.1041-0.1182 0.1921-0.2364 0.2722-0.3467 1.2278-2.2066 2.4315-4.3632 3.6112-6.4699 1.049-1.8519 2.194-3.9008 3.6032-6.4383l0.1602-0.2916v12.735c-0.0109 0.2312 0.0301 0.4619 0.1201 0.6757 0.0899 0.2139 0.2266 0.4056 0.4003 0.5616z"/>
 </g>
</svg>